PathFileType	4	(X/Y/Z)	Patient4_TMGait_0pt4_02_right_36.trc.trc
DataRate	CameraRate	NumFrames	NumMarkers	Units	OrigDataRate	OrigDataStartFrame	OrigNumFrames
75.675675675676	75.675675675676	4	33	mm	75.675675675676	53	       141
Frame#	Time	Sacral			L.Shoulder			Chest			R.Shoulder			Neck			R.ASIS			L.ASIS			R.Thigh.Superior			R.Thigh.Lateral			R.Thigh.Inferior			R.Patella			L.Thigh.Superior			L.Thigh.Lateral			L.Thigh.Inferior			L.Patella			L.Shank.Superior			L.Shank.Lateral			L.Shank.Inferior			R.Shank.Superior			R.Shank.Lateral			R.Shank.Inferior			R.Heel			R.Midfoot.Superior			R.Midfoot.Lateral			R.Toe			L.Heel			L.Midfoot.Lateral			L.Midfoot.Superior			L.Toe			L.Elbow			L.Wrist			R.Elbow			R.Wrist			
		X1	Y1	Z1	X2	Y2	Z2	X3	Y3	Z3	X4	Y4	Z4	X5	Y5	Z5	X6	Y6	Z6	X7	Y7	Z7	X8	Y8	Z8	X9	Y9	Z9	X10	Y10	Z10	X11	Y11	Z11	X12	Y12	Z12	X13	Y13	Z13	X14	Y14	Z14	X15	Y15	Z15	X16	Y16	Z16	X17	Y17	Z17	X18	Y18	Z18	X19	Y19	Z19	X20	Y20	Z20	X21	Y21	Z21	X22	Y22	Z22	X23	Y23	Z23	X24	Y24	Z24	X25	Y25	Z25	X26	Y26	Z26	X27	Y27	Z27	X28	Y28	Z28	X29	Y29	Z29	X30	Y30	Z30	X31	Y31	Z31	X32	Y32	Z32	X33	Y33	Z33	

53	48.197142857143	832.621631482926	1006.975353760137	526.533349106722	981.288643143940	1437.411590231219	331.952783624432	1103.475068781314	1372.961950473424	480.841720443106	1038.858747311259	1442.930311593746	664.165111792989	980.012718715732	1499.438893110817	490.087729595196	1069.969290533188	945.884719909001	623.253265637859	1032.214931097828	969.044121364352	351.108251993040	1088.903109256527	737.984888490650	591.275922936300	999.194842107953	634.239200217056	655.662160858672	1065.741259188760	576.149939921061	573.071849245369	1056.961972387229	491.556893507106	577.413067819199	1119.885668580793	789.258158307367	368.563475277654	1073.053928374576	662.631407668230	287.252009969229	1182.635749277161	604.307223402728	337.493144848782	1202.973147176179	523.388043713733	326.675945733352	1156.111797773554	449.200994066020	317.328026719887	1034.684021694927	365.733253583447	270.802755544208	1070.595093616548	236.684102905013	316.324314289145	1027.343936652007	403.963422313980	583.520987113594	955.010836995795	301.591794190794	645.715826310510	990.851809780878	206.398905586301	578.596350357387	852.127346518653	43.666239993017	549.259036588665	1024.386757452983	96.426921250786	581.972881516263	936.841839178242	37.258675261375	621.948192257442	1145.105848281180	41.559083812579	606.284158087526	919.210891990038	106.702819370191	357.331307744986	981.955981164225	90.909943755350	270.381625443128	1078.485630769521	134.757749700847	288.714618142978	1187.850736229150	61.470549622708	245.293153651647	907.997246048458	1088.880558935195	225.999702206744	937.787510018590	829.396018561504	211.773872315255	1130.798479662363	1122.663320090167	811.619983243179	1379.369450398743	1063.667823689406	783.903793995347	
54	48.210357142857	831.595105587607	1007.617830897166	527.741809976583	980.751004839636	1437.434259588366	332.654604797078	1103.907253247995	1372.379020883037	480.456824862482	1041.145150139991	1442.688894389446	664.311673830428	980.970639914242	1499.252631540242	490.845246055819	1069.223503653582	945.247998560462	622.841234943924	1030.069225863069	969.108616230547	350.912040413576	1086.133196709627	737.208174900612	590.514993806216	996.211852517267	634.051097623605	655.721754764889	1061.596221534179	575.546289262613	572.640354112133	1052.358098388142	491.178232566342	577.142573315142	1117.271199400066	789.586713152598	368.671699610346	1071.205756808696	663.235288091260	286.810466885811	1180.133862016186	604.934170220835	338.492709182405	1201.888812244700	525.868448742065	327.108440982526	1158.598714664285	451.458549219973	316.733569674404	1042.627952086532	361.259020819612	269.320358657379	1086.570674553928	234.024386247813	313.788729702094	1022.583988228667	403.766231737460	583.383433588722	950.297423845802	301.459311577767	645.802319079187	985.719418153854	206.247165836233	578.522608414598	846.774674870150	43.624544664967	549.315729635401	1019.009271854175	96.371206154085	581.961330737550	931.507178653738	37.222854595700	622.012428870136	1139.768887884244	41.516349636070	606.319756729933	943.832832210373	94.395921726826	354.014410647918	1007.300723607729	83.310055148320	266.784056326237	1101.031002822029	132.760494023759	285.322206677811	1214.635589815177	66.638055361444	241.089360334127	899.300418960525	1090.608648868361	227.944408511910	921.370519900139	830.366284020345	215.090199946534	1137.704093379691	1124.144845754573	810.955131673038	1388.375163416161	1078.691135070130	780.435871487273	
55	48.223571428571	830.518205849404	1008.188994793790	528.796055112259	980.280938946059	1437.359494212410	333.169411341236	1104.361943225246	1371.666970488923	479.896773506990	1043.441929617534	1442.330936027104	664.263560672830	981.957958934421	1498.980291957350	491.391644863950	1068.444645538269	944.550869782006	622.297638070403	1027.916689082904	968.998355187307	350.575623168699	1083.406876042020	736.409515495825	589.706872615219	993.333372500057	633.821795108784	655.740715883350	1057.551012313696	574.936020378431	572.163127494027	1047.856060342568	490.772203813795	576.858938478100	1114.357242555858	789.477854243991	368.763358004843	1069.046799620604	663.577303636845	286.176731223578	1177.104968798341	605.083973135043	339.565840090146	1200.238887816510	527.994804037730	327.592590440352	1160.524908532633	453.594748461269	316.211610912946	1050.478147860832	356.979152792901	267.651162798444	1102.125834170452	232.034740242039	311.383434182156	1017.903134372888	403.540515267425	583.234064969080	945.646134286268	301.311341255604	645.899721829555	980.615499573948	206.075565008466	578.439753855778	841.417603376518	43.581524422961	549.371322875328	1013.621111482695	96.308139221390	581.936136792088	926.172302223622	37.183324460615	622.074219494129	1134.435837682792	41.469869144689	606.346313977293	968.331171013959	83.440970529004	350.546842815256	1032.579979515740	76.840107033230	263.301349386736	1123.207227690038	131.657809849640	282.258657130860	1240.719061444766	72.646109536607	237.795300388517	891.171063175605	1092.341064997386	229.742173812936	905.931586312508	831.599675378352	218.168806202608	1144.291648202126	1125.393081890978	809.927295595254	1396.267865059732	1093.145263332370	776.721196462487	
56	48.236785714286	829.414951436594	1008.693947783615	529.693286262164	979.877572077143	1437.214711607865	333.485245465754	1104.821998224211	1370.857089749228	479.164338148379	1045.705167496781	1441.877886867087	664.016485021530	982.946769270509	1498.650189736905	491.705488080068	1067.647200336367	943.821269276840	621.632628751280	1025.771223551833	968.743207724231	350.102295522761	1080.767174239634	735.602049290738	588.889594998650	990.546801667712	633.568207919313	655.710724117726	1053.615398742448	574.325829735479	571.660496511731	1043.454603840803	490.350515925349	576.560874639237	1111.207051240507	789.023340635833	368.827041681109	1066.646459262516	663.711219874468	285.361599397736	1173.712140892954	604.875665431967	340.582002175479	1198.167738629755	529.824788053821	328.062201121851	1161.966492280134	455.628308214484	315.759275273138	1058.141372405582	353.056276695198	265.848486205952	1116.971207328562	230.795620524578	309.203463806399	1013.294163407861	403.296886012153	583.068984556703	941.045530129897	301.166218476646	646.004376564744	975.540695112432	205.898068810791	578.353607285683	836.060225813309	43.544459178191	549.428708360399	1008.228922351300	96.242060614476	581.903092431642	920.839167610175	37.143562203015	622.135191103791	1129.106556299905	41.420097310936	606.366359878068	992.134718218227	74.119165291284	347.077029647911	1057.259066497496	71.633535050270	260.099798112765	1144.576470031058	131.468064864780	279.664372454692	1265.619218839889	79.317140043395	235.613089075814	883.663227913940	1094.049873659114	231.383277856615	891.533361064191	833.032041514267	220.969660310926	1150.561420709460	1126.422988926217	808.544071768910	1403.106404344744	1106.882408822030	772.812938010692	
